<svg width="165" height="50" viewBox="0 0 165 50" fill="none" xmlns="http://www.w3.org/2000/svg">
<path d="M0.00122325 44.2617V6.61832C0.00122325 5.60511 0.892478 5.11727 1.33811 5H21.1801C29.342 5.33774 31.4294 12.2707 31.4528 15.695C31.7343 18.6783 29.1309 21.4881 27.794 22.52C31.8469 24.9405 32.2034 28.6884 31.875 30.2598C31.0307 37.0708 25.2376 38.7266 22.4466 38.7032H7.60028L1.6899 44.6839C0.282669 45.4157 -0.0222306 44.7074 0.00122325 44.2617Z" fill="#131E33"/>
<path d="M11.8207 29.3451L7.38796 29.134H7.17688V21.8867L11.8207 22.3089V29.3451Z" fill="#4369BB"/>
<path d="M13.5798 29.4154L13.5094 16.5393H18.294V29.6265L13.5798 29.4154Z" fill="#4369BB"/>
<path d="M20.1234 29.4154V12.7397H24.908V29.3451L20.1234 29.4154Z" fill="#4369BB"/>
<path d="M40.7018 41V19.6361H46.6617V41H40.7018Z" fill="#131E33"/>
<path d="M43.6363 9.25C45.5236 9.25019 47.0533 10.7806 47.0533 12.668C47.0531 14.5552 45.5235 16.0848 43.6363 16.085C41.7489 16.085 40.2185 14.5553 40.2183 12.668C40.2183 10.7805 41.7488 9.25 43.6363 9.25Z" fill="#4369BB" stroke="#1B6FD5" stroke-width="0.5"/>
<path d="M55.3036 27.5V22.5H65.3036V27.5H55.3036Z" fill="#131E33"/>
<path d="M73.3036 41V9H94.3036V14.6471H79.7203V22.6471H92.6508V28.5765H80.0119V41H73.3036Z" fill="#131E33"/>
<path d="M122.208 9V14.6637H108.685V22.5929H121.161V27.6903H108.685V35.1475H122.304V41H102.304V9H122.208Z" fill="#131E33"/>
<path d="M130.304 15.0059H138.964V41H145.202V15.0059H153.304V9H130.304V15.0059Z" fill="#131E33"/>
</svg>
