<svg width="40" height="40" viewBox="0 0 40 40" fill="none" xmlns="http://www.w3.org/2000/svg">
<path d="M8.75 3.75L14.0825 16.7C10.8875 18.685 8.75 22.2175 8.75 26.25C8.75 32.4525 13.7963 37.5 20 37.5C26.2038 37.5 31.25 32.4525 31.25 26.25C31.25 22.2188 29.1125 18.6862 25.9175 16.7L31.25 3.75H28.5475L23.6575 15.6225C22.8243 15.3335 21.9601 15.1434 21.0825 15.0562L25.7337 3.75H23.0312L18.3413 15.1375C17.6612 15.2377 16.9917 15.4001 16.3412 15.6225L11.4525 3.75H8.75ZM14.265 3.75L17.4412 11.4675L18.7937 8.18375L16.9688 3.75H14.265ZM20 17.5C24.8237 17.5 28.75 21.425 28.75 26.25C28.75 31.075 24.8237 35 20 35C15.1762 35 11.25 31.075 11.25 26.25C11.25 21.425 15.1762 17.5 20 17.5ZM20 21.4525L18.54 24.7275L15 25.115L17.65 27.495L16.9037 31.0075L20 29.2225L23.0962 31.01L22.3513 27.4975L25 25.1138L21.46 24.7262L20 21.4525Z" fill="#254791"/>
</svg>
