<svg width="50" height="40" viewBox="0 0 50 40" fill="none" xmlns="http://www.w3.org/2000/svg">
<path d="M40.5625 9.99219L36.8438 6.27344C36.0207 5.45766 34.9088 4.99997 33.75 5H16.0312C14.875 5 13.7578 5.46094 12.9375 6.27344L9.21875 9.99219H0V29.9688H5C6.375 29.9688 7.48438 28.8594 7.49219 27.4922H8.20312L14.8125 33.4609C17.2266 35.4219 20.5781 35.4688 23.0625 33.7578C24.0391 34.6016 25.0937 35 26.2734 35C27.6953 35 29.0312 34.4219 30.0859 33.125C31.8125 33.8047 33.8516 33.3281 35.0859 31.8125L37.1328 29.2891C37.5703 28.75 37.8438 28.1328 37.9844 27.4922H42.5078C42.5156 28.8594 43.6328 29.9688 45 29.9688H50V9.99219H40.5625ZM3.75 27.4688C3.0625 27.4688 2.5 26.9062 2.5 26.2188C2.5 25.5312 3.0625 24.9688 3.75 24.9688C4.4375 24.9688 5 25.5312 5 26.2188C5 26.9141 4.4375 27.4688 3.75 27.4688ZM34.2188 26.9297L32.1797 29.4453C31.9609 29.7109 31.5703 29.7578 31.2969 29.5391L29.4297 28.0234L27.0859 30.875C26.6172 31.4453 25.9141 31.25 25.6797 31.0625L22.8047 28.6016L21.5859 30.1016C20.5 31.4375 18.5234 31.6406 17.2656 30.6172L9.66406 23.7422H7.5V13.7344H10.7734L15.5938 8.92187C15.75 8.85937 15.8828 8.80469 16.0391 8.74219H20.4688L17.4453 11.5156C15.1484 13.6172 15.0156 17.1641 17.1016 19.4297C18.2578 20.6953 21.8828 22.6484 25.0312 19.7734L25.6719 19.1875L34.125 26.0469C34.3906 26.2656 34.4297 26.6641 34.2188 26.9297ZM42.5 23.7422H37.0938C36.9141 23.5234 36.7109 23.3203 36.4922 23.1406L28.4688 16.625L29.4453 15.7344C29.9531 15.2656 29.9922 14.4766 29.5234 13.9688L28.6719 13.0547C28.2031 12.5469 27.4141 12.5156 26.9062 12.9766L22.5938 16.9297C21.8516 17.6094 20.5859 17.6641 19.8906 16.9297C19.1641 16.1562 19.2266 14.9688 19.9844 14.2812L25.1094 9.58594C25.6875 9.05469 26.4375 8.76562 27.2188 8.76562L33.7578 8.75C33.9219 8.75 34.0781 8.8125 34.1875 8.92969L39.0078 13.7422H42.5V23.7422ZM46.25 27.4688C45.5625 27.4688 45 26.9062 45 26.2188C45 25.5312 45.5625 24.9688 46.25 24.9688C46.9375 24.9688 47.5 25.5312 47.5 26.2188C47.5 26.9141 46.9375 27.4688 46.25 27.4688Z" fill="#254791"/>
</svg>
