<svg width="40" height="40" viewBox="0 0 40 40" fill="none" xmlns="http://www.w3.org/2000/svg">
<path d="M8.57165 23.3334C7.32108 21.2854 6.66174 18.9313 6.66665 16.5317C6.66665 9.24171 12.6367 3.33337 20 3.33337C27.3633 3.33337 33.3333 9.24171 33.3333 16.5317C33.3382 18.9313 32.6789 21.2854 31.4283 23.3334M25 31.6667L24.7833 32.745C24.55 33.9234 24.4317 34.5117 24.1667 34.9784C23.7583 35.6976 23.0971 36.2394 22.3117 36.4984C21.8033 36.6667 21.2 36.6667 20 36.6667C18.8 36.6667 18.1967 36.6667 17.6883 36.5C16.9025 36.2406 16.2413 35.6983 15.8333 34.9784C15.5683 34.5117 15.45 33.9234 15.2167 32.745L15 31.6667M12.305 28.4967C12.1517 28.0367 12.075 27.805 12.0833 27.6184C12.0927 27.4254 12.1579 27.2392 12.2709 27.0825C12.3839 26.9257 12.5399 26.805 12.72 26.735C12.8933 26.6667 13.1367 26.6667 13.62 26.6667H26.38C26.865 26.6667 27.1067 26.6667 27.28 26.7334C27.4604 26.8035 27.6165 26.9244 27.7295 27.0815C27.8425 27.2386 27.9075 27.4251 27.9167 27.6184C27.925 27.805 27.8483 28.035 27.695 28.4967C27.4117 29.3484 27.27 29.775 27.0517 30.12C26.595 30.8411 25.8792 31.3594 25.0517 31.5684C24.655 31.6667 24.2083 31.6667 23.3133 31.6667H16.6867C15.7917 31.6667 15.3433 31.6667 14.9483 31.5667C14.1211 31.3582 13.4053 30.8404 12.9483 30.12C12.73 29.775 12.5883 29.3484 12.305 28.4967Z" stroke="#254791" stroke-width="1.5" stroke-linecap="round" stroke-linejoin="round"/>
<path d="M20.5134 20.0001L18.0784 12.4651C17.9941 12.2276 17.8371 12.0227 17.6298 11.8794C17.4225 11.7361 17.1753 11.6617 16.9234 11.6667C16.6714 11.6617 16.4242 11.7361 16.2169 11.8794C16.0096 12.0227 15.8527 12.2276 15.7684 12.4651L13.3334 20.0001M25 11.6667V20.0001M14.23 17.5001H19.615" stroke="#254791" stroke-width="1.5" stroke-linecap="round" stroke-linejoin="round"/>
</svg>
