<svg width="40" height="41" viewBox="0 0 40 41" fill="none" xmlns="http://www.w3.org/2000/svg">
<path fill-rule="evenodd" clip-rule="evenodd" d="M3.33337 20.5002C3.33337 20.5002 8.33337 7.16687 20 7.16687C31.6667 7.16687 36.6667 20.5002 36.6667 20.5002C36.6667 20.5002 34.7513 25.6079 30.5253 29.5007L28.5617 26.7516C30.8197 24.5735 32.2921 21.9756 33.0173 20.4996C31.6091 17.6333 27.3642 10.5002 20 10.5002C12.6392 10.5002 8.3947 17.6269 6.98283 20.5007C8.39095 23.3671 12.6358 30.5002 20 30.5002C20.9864 30.5002 21.9168 30.3723 22.7919 30.1437L24.8402 33.0113C23.3754 33.5287 21.7639 33.8335 20 33.8335C8.33337 33.8335 3.33337 20.5002 3.33337 20.5002ZM22.3968 26.723C21.653 27.0097 20.8449 27.1669 20 27.1669C16.3181 27.1669 13.3334 24.1821 13.3334 20.5002C13.3334 16.8184 16.3181 13.8335 20 13.8335C23.6819 13.8335 26.6667 16.8183 26.6667 20.5002C26.6667 22.1313 26.0809 23.6256 25.1083 24.7841L29.6896 31.198L26.9771 33.1355L22.3968 26.723ZM20 23.8335C21.841 23.8335 23.3334 22.3412 23.3334 20.5002C23.3334 18.6592 21.841 17.1669 20 17.1669C18.1591 17.1669 16.6667 18.6592 16.6667 20.5002C16.6667 22.3412 18.1591 23.8335 20 23.8335Z" fill="#254791"/>
</svg>
