<svg width="40" height="40" viewBox="0 0 40 40" fill="none" xmlns="http://www.w3.org/2000/svg">
<path d="M37.2111 29.2001C37.133 28.923 36.9503 28.687 36.7016 28.5419C36.4528 28.3968 36.1575 28.3539 35.8778 28.4223L33.1111 29.1668C34.6251 26.9351 35.543 24.3533 35.7778 21.6668C36.0047 19.1533 35.6372 16.6217 34.7049 14.2766C33.7727 11.9314 32.3018 9.83842 30.4111 8.16677C30.1926 7.98601 29.9132 7.89566 29.6301 7.91426C29.3471 7.93285 29.0819 8.05897 28.8889 8.26677C28.6947 8.4879 28.5961 8.77706 28.6149 9.07079C28.6336 9.36451 28.7681 9.63879 28.9889 9.83344C30.6181 11.2715 31.8855 13.0731 32.6886 15.0923C33.4916 17.1115 33.8077 19.2915 33.6111 21.4557C33.4203 23.735 32.6559 25.929 31.3889 27.8334L31.1111 25.0445C31.1321 24.8804 31.1161 24.7137 31.0644 24.5565C31.0126 24.3993 30.9265 24.2557 30.8121 24.1361C30.6978 24.0165 30.5582 23.9239 30.4035 23.8652C30.2488 23.8064 30.083 23.783 29.9181 23.7965C29.7532 23.81 29.5934 23.8602 29.4503 23.9434C29.3073 24.0266 29.1847 24.1407 29.0914 24.2773C28.9981 24.4139 28.9364 24.5697 28.911 24.7332C28.8856 24.8967 28.897 25.0638 28.9445 25.2223L29.5 32.3779L36.4445 30.5334C36.7195 30.453 36.9529 30.2693 37.0958 30.0209C37.2386 29.7724 37.28 29.4783 37.2111 29.2001Z" fill="#254791"/>
<path d="M4.78891 18.9778C4.93723 19.0714 5.10397 19.1321 5.2778 19.1555C5.56778 19.1936 5.86106 19.1158 6.09403 18.939C6.327 18.7621 6.48086 18.5006 6.52225 18.2111C6.98136 14.8213 8.70409 11.73 11.3455 9.55632C13.9868 7.38265 17.3519 6.28703 20.7667 6.48888L18.2778 8.18888C18.1017 8.32155 17.9691 8.50361 17.8967 8.71189C17.8244 8.92017 17.8157 9.14526 17.8717 9.35852C17.9277 9.57177 18.0459 9.76354 18.2112 9.90943C18.3765 10.0553 18.5815 10.1487 18.8 10.1778C19.0503 10.2007 19.301 10.138 19.5111 9.99999L25.4334 5.93333L20.3667 0.844437C20.2765 0.706284 20.1567 0.58994 20.016 0.503854C19.8753 0.417767 19.7171 0.364098 19.5531 0.346742C19.389 0.329387 19.2232 0.34878 19.0675 0.403515C18.9119 0.45825 18.7704 0.546952 18.6534 0.663182C18.5363 0.779412 18.4466 0.920253 18.3907 1.07548C18.3349 1.23071 18.3143 1.39642 18.3304 1.5606C18.3466 1.72478 18.3991 1.88329 18.4842 2.02464C18.5693 2.16598 18.6847 2.28661 18.8222 2.37777L20.7111 4.26666C16.7676 4.0781 12.8967 5.37484 9.86256 7.90089C6.82842 10.4269 4.85156 13.9987 4.32225 17.9111C4.29376 18.1147 4.3223 18.3221 4.40468 18.5105C4.48707 18.6988 4.62008 18.8605 4.78891 18.9778Z" fill="#254791"/>
<path d="M24.1444 33.2555C22.4094 33.8097 20.5792 34.0026 18.7667 33.8221C16.5593 33.6058 14.4377 32.8554 12.5852 31.6359C10.7326 30.4163 9.20469 28.7642 8.13334 26.8221L10.9 27.8555C11.155 27.8997 11.4175 27.8535 11.6421 27.7249C11.8667 27.5962 12.0394 27.3932 12.1303 27.1508C12.2211 26.9085 12.2246 26.642 12.1399 26.3974C12.0553 26.1528 11.8879 25.9454 11.6667 25.811L6.56667 23.9221L4.93334 23.3333L3.7 30.3888C3.65725 30.6707 3.72453 30.9583 3.88792 31.192C4.05131 31.4258 4.2983 31.5877 4.57778 31.6444H4.76667C5.02818 31.6491 5.28299 31.5615 5.48623 31.3968C5.68948 31.2322 5.82813 31.0012 5.87778 30.7444L6.34445 28.0777C7.60114 30.2791 9.3663 32.1479 11.4925 33.528C13.6188 34.9081 16.0443 35.7595 18.5667 36.011C20.6755 36.2203 22.8049 35.9934 24.8222 35.3444C25.0791 35.238 25.2868 35.0392 25.4042 34.7872C25.5217 34.5352 25.5404 34.2483 25.4567 33.9832C25.3729 33.7181 25.1929 33.494 24.952 33.3551C24.7111 33.2163 24.4269 33.1728 24.1556 33.2333L24.1444 33.2555Z" fill="#254791"/>
<path d="M24.4445 14.4443H15.5556C15.2609 14.4443 14.9783 14.5614 14.7699 14.7698C14.5615 14.9781 14.4445 15.2608 14.4445 15.5554V24.4443C14.4445 24.739 14.5615 25.0216 14.7699 25.23C14.9783 25.4384 15.2609 25.5554 15.5556 25.5554H24.4445C24.7391 25.5554 25.0218 25.4384 25.2301 25.23C25.4385 25.0216 25.5556 24.739 25.5556 24.4443V15.5554C25.5556 15.2608 25.4385 14.9781 25.2301 14.7698C25.0218 14.5614 24.7391 14.4443 24.4445 14.4443ZM23.3333 23.3332H16.6667V16.6666H23.3333V23.3332Z" fill="#254791"/>
</svg>
